<svg width="30" height="30" viewBox="0 0 30 30" fill="none" xmlns="http://www.w3.org/2000/svg">
<path fill-rule="evenodd" clip-rule="evenodd" d="M19.9166 5.04C18.269 3.63923 16.0435 2.84006 13.7134 2.8125H13.6252C11.2949 2.83966 9.06898 3.63856 7.42105 5.03924C5.77313 6.43992 4.83321 8.33183 4.80125 10.3125C4.77258 11.7188 5.23804 13.1006 6.13807 14.2819L13.0825 26.25H14.2583L21.2005 14.2819C22.1027 13.1006 22.5682 11.7188 22.5373 10.3125C22.5049 8.33199 21.5646 6.44037 19.9166 5.04V5.04ZM13.5038 4.6875L13.6847 4.70625L13.848 4.6875C15.5809 4.75165 17.2191 5.37762 18.4258 6.43674C19.6324 7.49586 20.3159 8.90764 20.3357 10.3819C20.3526 11.4282 19.9932 12.4539 19.3055 13.3219L19.2614 13.3856L19.2239 13.4512L13.6693 23.0231L8.11683 13.4606L8.07933 13.3875L8.03521 13.3237C7.34757 12.4558 6.98814 11.4301 7.00502 10.3838C7.02383 8.90781 7.70812 7.49424 8.91683 6.43444C10.1255 5.37463 11.7666 4.74935 13.5016 4.6875H13.5038ZM14.8539 8.75438C14.613 8.61747 14.3428 8.52224 14.0586 8.4741C13.7744 8.42597 13.4818 8.42589 13.1976 8.47385C12.9134 8.52182 12.6431 8.6169 12.4021 8.75367C12.1611 8.89043 11.9542 9.0662 11.7931 9.27094C11.632 9.47568 11.52 9.70538 11.4633 9.94692C11.4067 10.1885 11.4066 10.4371 11.4631 10.6787C11.5195 10.9203 11.6313 11.15 11.7923 11.3549C11.9532 11.5597 12.16 11.7356 12.4008 11.8725C12.8873 12.149 13.4831 12.2499 14.0571 12.153C14.6311 12.0561 15.1363 11.7694 15.4616 11.3559C15.7869 10.9424 15.9056 10.4361 15.7917 9.94817C15.6777 9.46029 15.3404 9.03086 14.8539 8.75438V8.75438ZM11.1765 7.19437C11.6578 6.90679 12.202 6.70394 12.7769 6.59776C13.3519 6.49157 13.946 6.4842 14.5243 6.57607C15.1026 6.66795 15.6535 6.85721 16.1445 7.13273C16.6355 7.40825 17.0567 7.76445 17.3833 8.18039C17.71 8.59632 17.9354 9.06358 18.0464 9.55468C18.1574 10.0458 18.1518 10.5508 18.0298 11.04C17.9077 11.5292 17.6718 11.9927 17.3359 12.4033C17 12.8138 16.5709 13.1631 16.0738 13.4306C15.1007 13.9543 13.9254 14.1337 12.7987 13.9307C11.6721 13.7277 10.6835 13.1583 10.0441 12.3441C9.40476 11.5299 9.1653 10.5355 9.37688 9.57329C9.58847 8.61107 10.2343 7.75731 11.1765 7.19437V7.19437Z" fill="black"/>
</svg>
