<svg width="30" height="30" viewBox="0 0 30 30" fill="none" xmlns="http://www.w3.org/2000/svg">
<path d="M25.488 21.0712C25.4379 20.7616 25.2438 20.497 24.9531 20.3398L20.6526 17.806L20.6172 17.7862C20.4369 17.6959 20.2377 17.6496 20.0361 17.6512C19.6758 17.6512 19.3317 17.7877 19.0929 18.0271L17.8236 19.297C17.7693 19.3486 17.5923 19.4233 17.5386 19.426C17.5239 19.4248 16.0617 19.3195 13.3698 16.6273C10.6827 13.9408 10.5687 12.4741 10.5678 12.4741C10.5693 12.3991 10.6431 12.2227 10.6956 12.1681L11.778 11.086C12.1593 10.7038 12.2736 10.0702 12.0474 9.57935L9.657 5.08145C9.4833 4.72385 9.1458 4.50305 8.7714 4.50305C8.5065 4.50305 8.2509 4.61285 8.0511 4.81235L5.1006 7.75625C4.8177 8.03765 4.5741 8.52965 4.521 8.92565C4.4952 9.11495 3.9717 13.6336 10.1667 19.8295C15.426 25.0882 19.527 25.4968 20.6595 25.4968C20.7974 25.4985 20.9353 25.4914 21.0723 25.4755C21.4671 25.4227 21.9585 25.1797 22.2396 24.898L25.1877 21.9502C25.4283 21.7084 25.5381 21.3889 25.488 21.0712V21.0712Z" fill="black"/>
</svg>
