<svg width="22" height="22" viewBox="0 0 22 22" fill="none" xmlns="http://www.w3.org/2000/svg">
<path d="M19.8736 2.72728C19.6841 2.56371 19.4535 2.45509 19.2068 2.41317C18.96 2.37126 18.7065 2.39765 18.4736 2.48949L2.61328 8.72038C2.33688 8.82902 2.10307 9.02422 1.94684 9.2768C1.79062 9.52937 1.72037 9.82574 1.7466 10.1216C1.77284 10.4174 1.89415 10.6968 2.09239 10.9179C2.29063 11.139 2.55513 11.2901 2.84634 11.3484L6.87501 12.1543V17.1862C6.87477 17.4582 6.95527 17.7242 7.10631 17.9505C7.25735 18.1768 7.47214 18.3531 7.72348 18.4572C7.97482 18.5613 8.2514 18.5885 8.5182 18.5353C8.785 18.4822 9.03001 18.351 9.22222 18.1585L11.4518 15.929L14.8357 18.9067C15.0848 19.128 15.4063 19.2504 15.7395 19.2508C15.8843 19.2507 16.0282 19.2278 16.166 19.1832C16.3932 19.1111 16.5976 18.9807 16.7587 18.805C16.9199 18.6292 17.0321 18.4143 17.0842 18.1817L20.3167 4.07658C20.373 3.83266 20.3614 3.57799 20.2833 3.34016C20.2052 3.10233 20.0635 2.89041 19.8736 2.72736V2.72728ZM7.40318 10.8576L3.11619 10.0002L15.12 5.28426L7.40318 10.8576ZM8.25001 17.1855V13.1114L10.4174 15.0186L8.25001 17.1855ZM15.7439 17.8744L8.66337 11.6435L18.8594 4.27974L15.7439 17.8744Z" fill="black"/>
</svg>
