<svg width="38" height="39" viewBox="0 0 38 39" fill="none" xmlns="http://www.w3.org/2000/svg">
<mask id="mask0_559_12" style="mask-type:alpha" maskUnits="userSpaceOnUse" x="0" y="0" width="38" height="39">
<path d="M9.37758 13.1012C7.07551 15.4751 5.78259 18.6921 5.78259 22.0462C5.78259 25.4002 7.07551 28.6172 9.37758 30.9912C11.7829 33.4668 14.9256 34.6956 18.0683 34.6956C21.211 34.6956 24.3537 33.4668 26.759 30.9912C32.8688 24.7026 33.8696 5.78259 33.8696 5.78259C33.8696 5.78259 15.4874 6.81262 9.37758 13.1012ZM24.2834 28.4432C22.6155 30.1418 20.4209 31.0815 18.0683 31.0815C16.5057 31.0815 15.0309 30.6297 13.7141 29.8527C15.3294 24.6484 18.3141 20.0765 22.282 16.625C17.6645 19.0826 13.7844 22.8774 11.0982 27.4674C8.49973 23.9255 8.72797 18.8838 11.8707 15.6492C14.9256 12.5049 23.4056 10.5713 30.007 9.75814C29.217 16.5527 27.3384 25.2808 24.2834 28.4432V28.4432Z" fill="black"/>
</mask>
<g mask="url(#mask0_559_12)">
<rect x="5.78262" y="5.78259" width="28.913" height="28.913" fill="black"/>
</g>
</svg>
