<svg width="40" height="41" viewBox="0 0 40 41" fill="none" xmlns="http://www.w3.org/2000/svg">
<mask id="mask0_559_14" style="mask-type:alpha" maskUnits="userSpaceOnUse" x="0" y="0" width="40" height="41">
<path d="M29.4802 9C28.2869 10.1846 26.8674 11.0964 25.3133 11.6768C23.6746 11.9767 19.1397 9.79531 16.9051 12.0222C16.5327 12.4085 16.0726 12.7948 15.5906 13.1811C14.5391 12.7039 12.9179 11.9767 11.7349 11.2723C10.5518 10.5679 7.57236 9 7.57236 9L1 16.9531C1 16.9531 2.62118 19.2254 3.62894 20.7251C4.28618 21.725 5.09677 23.2474 5.62256 24.27L4.87769 25.1789C4.69931 25.5464 4.63513 25.9623 4.69398 26.3692C4.75283 26.7761 4.93182 27.1541 5.20631 27.4512C5.52314 27.6976 5.90864 27.8304 6.30463 27.8295C6.70061 27.8287 7.08559 27.6943 7.40148 27.4466C7.28435 27.5889 7.1957 27.7539 7.14071 27.9321C7.08573 28.1102 7.06549 28.2979 7.08119 28.4843C7.0969 28.6706 7.14822 28.8519 7.23217 29.0174C7.31613 29.183 7.43103 29.3295 7.57017 29.4486C7.90471 29.6512 8.28531 29.7576 8.67273 29.7568C9.06014 29.756 9.44034 29.648 9.7741 29.444C9.52379 29.7676 9.38683 30.1698 9.38563 30.5847C9.38444 30.9995 9.51908 31.4025 9.76753 31.7277C10.0905 31.8436 10.4349 31.8806 10.7739 31.8357C11.1129 31.7907 11.4373 31.6651 11.7217 31.4686C11.58 31.8165 11.5433 32.2008 11.6164 32.5708C11.6896 32.9407 11.8691 33.279 12.1314 33.541C12.5019 33.7117 12.9081 33.7821 13.3119 33.7456C13.7158 33.709 14.1041 33.5667 14.4405 33.3319L15.5709 32.2708C16.605 33.3388 18.0312 34 19.6063 34L19.74 33.9977C20.2591 33.9518 20.7564 33.7602 21.1785 33.4436C21.6007 33.127 21.9319 32.6972 22.1367 32.2003C22.4566 32.3276 22.8202 32.4139 23.2058 32.4139C23.7228 32.4139 24.2026 32.2594 24.6079 31.9935C25.8895 31.1142 25.5828 30.4325 25.5828 30.4325C26.0385 30.6359 26.5447 30.6842 27.0286 30.5703C27.5124 30.4563 27.9489 30.1861 28.2753 29.7985C28.6144 29.4386 28.8283 28.9718 28.883 28.4718C28.9378 27.9719 28.8303 27.4672 28.5776 27.0376C28.5915 27.0462 28.6075 27.0502 28.6236 27.049C29.5459 27.049 30.3478 26.5218 30.7662 25.7447C30.9721 25.1923 31.0417 24.5954 30.9686 24.0081C30.8956 23.4207 30.6821 22.8617 30.3478 22.3817L30.3543 22.393C32.1508 22.0294 32.0851 21.0978 32.9614 19.7344C33.7911 18.6218 34.8235 17.6892 36 16.9895L29.4802 9ZM29.3707 25.0425C28.4067 26.0424 27.6619 25.6106 26.0188 24.3154C24.3757 23.0202 21.1114 20.5888 21.1114 20.5888C21.2451 21.2819 21.554 21.884 21.9899 22.3635C22.6888 23.1792 24.77 25.0425 25.7559 25.9969C26.3693 26.5877 27.9467 27.7693 27.0265 28.6782C26.1064 29.5872 25.3834 28.6782 23.8718 27.4057C22.3602 26.1332 18.9864 22.9975 18.9864 22.9975C18.9678 23.298 19.0109 23.5993 19.1128 23.8813C19.2148 24.1633 19.3733 24.4197 19.5779 24.6335C19.9503 25.088 22.0315 27.1785 22.9079 28.1329C23.7842 29.0873 24.551 29.6553 23.8061 30.4052C23.0612 31.1551 21.5496 29.9735 20.7171 29.0873C19.4245 27.792 16.8613 25.3834 16.8613 25.3834L16.8591 25.5038C16.8591 26.1492 17.0738 26.74 17.4353 27.2081C18.0662 28.067 19.2931 29.1804 20.0379 30.0439C20.7828 30.9074 21.221 31.6345 20.0379 32.3162C18.8549 32.9979 17.1023 31.3164 16.3355 30.4984V30.4938C16.3357 30.2694 16.2579 30.0524 16.1164 29.8826C15.8544 29.6308 15.531 29.4579 15.1813 29.3827C14.8315 29.3074 14.4686 29.3325 14.1316 29.4554C14.2702 29.3266 14.3814 29.1692 14.4579 28.9932C14.5344 28.8172 14.5745 28.6266 14.5758 28.4336C14.577 28.2405 14.5393 28.0494 14.4651 27.8724C14.3908 27.6954 14.2817 27.5364 14.1447 27.4057C13.8571 27.1798 13.5061 27.0576 13.1453 27.058C12.7846 27.0585 12.4338 27.1814 12.1467 27.408C12.2919 27.2642 12.404 27.0883 12.4746 26.8934C12.5452 26.6985 12.5726 26.4896 12.5547 26.2822C12.5368 26.0748 12.4741 25.8742 12.3712 25.6954C12.2684 25.5166 12.128 25.3641 11.9605 25.2493C11.5683 24.9937 11.1081 24.8736 10.646 24.9063C10.1839 24.939 9.74365 25.1227 9.38852 25.4311C9.62587 25.1327 9.74289 24.7508 9.71513 24.365C9.68737 23.9793 9.51698 23.6195 9.23955 23.361C8.89475 23.0282 8.45536 22.8199 7.98703 22.7675C7.51871 22.7151 7.04661 22.8213 6.64127 23.0702L5.1844 20.5184C4.17664 18.8596 2.99362 17.1326 2.99362 17.1326L7.98861 10.8383C7.98861 10.8383 9.76314 11.9745 11.231 12.8379C11.9539 13.2697 13.2027 13.8378 14.1447 14.2922C12.655 15.4511 11.4062 16.5645 11.7787 17.3371C12.4424 17.8313 13.2356 18.1039 14.0524 18.1185C14.8693 18.1331 15.6711 17.8891 16.3508 17.4189C17.2224 16.818 18.2465 16.4992 19.2931 16.5032C20.0533 16.5032 20.7762 16.6668 21.4313 16.9645C22.645 17.8143 24.8796 19.9048 26.917 21.2228C29.4802 23.1542 29.9841 24.404 29.3707 25.0403V25.0425Z" fill="black"/>
</mask>
<g mask="url(#mask0_559_14)">
<rect x="1" y="4" width="35" height="35" fill="black"/>
</g>
</svg>
