<svg width="38" height="38" viewBox="0 0 38 38" fill="none" xmlns="http://www.w3.org/2000/svg">
<mask id="mask0_559_10" style="mask-type:alpha" maskUnits="userSpaceOnUse" x="0" y="0" width="38" height="38">
<path d="M7.87386 19.4216V14.2573C10.6417 15.7827 14.6711 16.7568 19.1712 16.7568C23.6712 16.7568 27.7006 15.7827 30.4685 14.2573V16.8487C30.7885 16.8119 31.0898 16.7568 31.4099 16.7568C32.4078 16.7568 33.3493 16.9406 34.2342 17.2346V9.40543C34.2342 5.34381 27.4935 2.05408 19.1712 2.05408C10.8488 2.05408 4.10809 5.34381 4.10809 9.40543V27.7838C4.10809 31.8454 10.8676 35.1352 19.1712 35.1352C19.8113 35.1352 20.4327 35.1352 21.054 35.08V31.3676C20.4515 31.4595 19.8302 31.4595 19.1712 31.4595C11.8844 31.4595 7.87386 28.7027 7.87386 27.7838V23.6854C10.9053 25.1189 14.8782 25.946 19.1712 25.946C19.9431 25.946 20.6963 25.8908 21.4494 25.8357C21.8072 24.9535 22.3344 24.1633 23.0687 23.5568C23.1817 22.987 23.37 22.4357 23.5771 21.9027C22.1838 22.1416 20.6963 22.2703 19.1712 22.2703C14.6146 22.2703 10.3216 21.1676 7.87386 19.4216V19.4216ZM19.1712 5.72975C26.4579 5.72975 30.4685 8.48651 30.4685 9.40543C30.4685 10.3243 26.4579 13.0811 19.1712 13.0811C11.8844 13.0811 7.87386 10.3243 7.87386 9.40543C7.87386 8.48651 11.8844 5.72975 19.1712 5.72975ZM36.1171 25.946V25.027C36.1171 23.8085 35.6212 22.6398 34.7384 21.7782C33.8556 20.9165 32.6583 20.4325 31.4099 20.4325C30.1615 20.4325 28.9642 20.9165 28.0814 21.7782C27.1986 22.6398 26.7027 23.8085 26.7027 25.027V25.946C25.6671 25.946 24.8198 26.773 24.8198 27.7838V35.1352C24.8198 36.146 25.6671 36.973 26.7027 36.973H36.1171C37.1527 36.973 38 36.146 38 35.1352V27.7838C38 26.773 37.1527 25.946 36.1171 25.946ZM34.2342 25.946H28.5856V25.027C28.5856 23.5016 29.8471 22.2703 31.4099 22.2703C32.9727 22.2703 34.2342 23.5016 34.2342 25.027V25.946Z" fill="black"/>
</mask>
<g mask="url(#mask0_559_10)">
<rect x="4" y="2" width="34" height="35" fill="black"/>
</g>
</svg>
